<svg width="1600" height="900" viewBox="0 0 1600 900" fill="none" xmlns="http://www.w3.org/2000/svg">
  <rect width="1600" height="900" fill="#120F16"/>
  <rect width="1600" height="900" fill="url(#bg)"/>
  <path d="M1038 106H1454" stroke="#F55D6A" stroke-width="4"/>
  <path d="M1038 208H1454" stroke="#F55D6A" stroke-width="4"/>
  <path d="M1038 310H1454" stroke="#F55D6A" stroke-width="4"/>
  <path d="M1038 106V310" stroke="#F55D6A" stroke-width="4"/>
  <path d="M1454 106V310" stroke="#F55D6A" stroke-width="4"/>
  <circle cx="1098" cy="158" r="16" fill="#FFD7A3"/>
  <circle cx="1246" cy="158" r="16" fill="#FFD7A3"/>
  <circle cx="1388" cy="158" r="16" fill="#FFD7A3"/>
  <circle cx="1098" cy="260" r="16" fill="#FFD7A3"/>
  <circle cx="1246" cy="260" r="16" fill="#FFD7A3"/>
  <circle cx="1388" cy="260" r="16" fill="#FFD7A3"/>
  <rect x="76" y="84" width="628" height="734" rx="32" fill="#1A1520" fill-opacity="0.88" stroke="#43314B"/>
  <text x="122" y="180" fill="#F5EEE8" font-size="84" font-family="Georgia, serif" letter-spacing="3">SYMPHONY</text>
  <text x="122" y="254" fill="#F55D6A" font-size="24" font-family="'Courier New', monospace">VERIFICATION / OBSERVABILITY / CONTROL</text>
  <text x="122" y="350" fill="#DACFD3" font-size="31" font-family="'Trebuchet MS', sans-serif">A fork-oriented orchestration service for</text>
  <text x="122" y="392" fill="#DACFD3" font-size="31" font-family="'Trebuchet MS', sans-serif">frontier AI workflows that need visible state,</text>
  <text x="122" y="434" fill="#DACFD3" font-size="31" font-family="'Trebuchet MS', sans-serif">safe transitions, and operator trust.</text>
  <rect x="122" y="544" width="520" height="124" rx="24" fill="#241B2A" stroke="#55354A"/>
  <text x="158" y="608" fill="#F5EEE8" font-size="26" font-family="'Courier New', monospace">TYPESCRIPT / DASHBOARD / API / WORKFLOWS</text>
  <text x="158" y="648" fill="#C9BAC2" font-size="22" font-family="'Courier New', monospace">fork with explicit contribution framing</text>
  <rect x="792" y="528" width="704" height="244" rx="30" fill="#17111B" fill-opacity="0.9" stroke="#403046"/>
  <text x="840" y="604" fill="#F55D6A" font-size="22" font-family="'Courier New', monospace">SUPERVISION LAYER</text>
  <text x="840" y="664" fill="#F5EEE8" font-size="56" font-family="Georgia, serif">Autonomy needs witnesses.</text>
  <text x="840" y="720" fill="#D8CBCF" font-size="29" font-family="'Trebuchet MS', sans-serif">This repo is about the workflow contract around the model.</text>
  <defs>
    <linearGradient id="bg" x1="102" y1="55" x2="1508" y2="838" gradientUnits="userSpaceOnUse">
      <stop stop-color="#171119"/>
      <stop offset="0.5" stop-color="#251926"/>
      <stop offset="1" stop-color="#120F16"/>
    </linearGradient>
  </defs>
</svg>
